<svg style="position: absolute; width: 0; height: 0; overflow: hidden;" version="1.1" xmlns="http://www.w3.org/2000/svg" xmlns:xlink="http://www.w3.org/1999/xlink">
<defs>
<symbol id="sportinev-icon" viewBox="0 0 374 83">
<title>Logo Sportinev</title>
<path d="M116.32 64.4643C110.586 64.4643 105.892 60.1425 105.892 54.8625V51.1674C105.892 49.2876 107.553 47.7579 109.595 47.7579C111.636 47.7579 113.298 49.2876 113.298 51.1674V52.8998C113.298 55.5813 115.659 57.7467 118.561 57.7467C121.473 57.7467 123.825 55.572 123.825 52.8998V51.5083C123.825 50.2551 123.195 49.0111 122.154 48.2463L110.576 40.0821C107.654 38.064 105.882 34.802 105.882 31.4386V30.0472C105.882 23.6245 111.586 18.3721 118.561 18.3721C125.536 18.3721 131.24 23.6245 131.24 30.0472V31.6782C131.24 33.558 129.579 35.0877 127.538 35.0877C125.496 35.0877 123.835 33.558 123.835 31.6782V30.0472C123.835 27.3657 121.473 25.2002 118.571 25.2002C115.659 25.2002 113.308 27.3749 113.308 30.0472V31.4386C113.308 32.6918 113.938 33.9358 114.979 34.7006L126.557 42.8649C129.479 44.8829 131.25 48.1449 131.25 51.5083V52.8998C131.25 59.3224 125.546 64.5748 118.571 64.5748H116.33V64.4643H116.32Z"/>
<path d="M164.414 32.3775C164.414 38.662 158.83 43.8038 152.005 43.8038H148.453C147.362 43.8038 146.471 44.6239 146.471 45.6283V61.1459C146.471 63.0258 144.81 64.5554 142.769 64.5554C140.727 64.5554 139.066 63.0258 139.066 61.1459V20.2693C139.066 19.2649 139.957 18.4448 141.047 18.4448H152.005C158.83 18.4448 164.414 23.5866 164.414 29.8711V32.3775ZM157.009 29.8803C157.009 27.337 154.767 25.2729 152.005 25.2729H148.453C147.362 25.2729 146.471 26.0931 146.471 27.0975V35.1696C146.471 36.174 147.362 36.9941 148.453 36.9941H152.005C154.767 36.9941 157.009 34.93 157.009 32.3867V29.8803Z"/>
<path d="M182.567 64.5563H182.046C175.222 64.5563 169.638 59.4145 169.638 53.13V29.7891C169.638 23.5046 175.222 18.3628 182.046 18.3628H182.567C189.392 18.3628 194.976 23.5046 194.976 29.7891V53.13C194.976 59.4145 189.392 64.5563 182.567 64.5563ZM182.036 57.7374H182.557C185.319 57.7374 187.56 55.6733 187.56 53.13V29.7891C187.56 27.2458 185.319 25.1817 182.557 25.1817H182.036C179.275 25.1817 177.033 27.2458 177.033 29.7891V53.13C177.033 55.6733 179.275 57.7374 182.036 57.7374Z"/>
<path d="M222.405 50.0515C223.066 53.848 223.986 55.8844 224.677 56.8888C225.037 57.4233 225.668 57.7366 226.348 57.7366C227.569 57.7366 228.56 58.6489 228.56 59.7731V62.5283C228.56 63.6525 227.569 64.5647 226.348 64.5647H225.537C217.061 64.5647 214.99 52.7606 214.47 45.5086C214.4 44.5503 213.539 43.8131 212.498 43.8131C211.407 43.8131 210.517 44.6332 210.517 45.6376V61.1553C210.517 63.0351 208.856 64.5647 206.814 64.5647C204.773 64.5647 203.111 63.0351 203.111 61.1553V20.2786C203.111 19.2742 204.002 18.4541 205.093 18.4541H216.051C222.876 18.4541 228.46 23.596 228.46 29.8804V34.3035C228.46 37.9249 226.198 41.0763 222.946 42.6613C222.245 43.0022 221.825 43.6749 221.875 44.4029C221.995 45.9694 222.195 47.9782 222.515 50.0607H222.405V50.0515ZM212.398 37.0864H215.951C218.713 37.0864 220.954 35.0222 220.954 32.479V29.8804C220.954 27.3371 218.713 25.273 215.951 25.273H212.398C211.307 25.273 210.417 26.0932 210.417 27.0976V35.2618C210.417 36.2662 211.297 37.0864 212.398 37.0864Z"/>
<path d="M243.69 25.2637H238.427C236.385 25.2637 234.724 23.7341 234.724 21.8543C234.724 19.9745 236.385 18.4448 238.427 18.4448H256.269C258.311 18.4448 259.972 19.9745 259.972 21.8543C259.972 23.7341 258.311 25.2637 256.269 25.2637H250.996V61.1459C250.996 63.0258 249.344 64.5554 247.293 64.5554C245.251 64.5554 243.59 63.0257 243.59 61.1367L243.69 25.2637Z"/>
<path d="M265.806 61.1459V21.8543C265.806 19.9745 267.467 18.4448 269.509 18.4448C271.55 18.4448 273.211 19.9745 273.211 21.8543V61.1459C273.211 63.0258 271.55 64.5554 269.509 64.5554C267.457 64.5554 265.806 63.0258 265.806 61.1459Z"/>
<path d="M293.966 25.2637C291.204 25.2637 288.963 27.3278 288.963 29.8711V61.1367C288.963 63.0165 287.301 64.5462 285.26 64.5462C283.218 64.5462 281.557 63.0165 281.557 61.1367V29.8711C281.557 23.5866 287.141 18.4448 293.966 18.4448H294.486C301.311 18.4448 306.895 23.5866 306.895 29.8711V61.1367C306.895 63.0165 305.234 64.5462 303.193 64.5462C301.151 64.5462 299.49 63.0165 299.49 61.1367V29.8711C299.49 27.3278 297.248 25.2637 294.486 25.2637H293.966Z"/>
<path d="M315.351 53.1197V29.7787C315.351 23.4943 320.935 18.3525 327.76 18.3525H328.281C335.105 18.3525 340.689 23.4943 340.689 29.7787C340.689 31.3176 339.338 32.5616 337.667 32.5616H336.316C334.645 32.5616 333.294 31.3176 333.294 29.7787C333.294 27.2355 331.053 25.1714 328.291 25.1714H327.77C325.008 25.1714 322.767 27.2355 322.767 29.7787V33.7227C322.767 34.7271 323.657 35.5472 324.748 35.5472H329.391C331.433 35.5472 333.094 37.0768 333.094 38.9566C333.094 40.8364 331.433 42.3661 329.391 42.3661H324.748C323.657 42.3661 322.767 43.1862 322.767 44.1906V53.1289C322.767 55.6722 325.008 57.7363 327.77 57.7363H328.291C331.053 57.7363 333.294 55.6722 333.294 53.1289C333.294 51.8573 334.415 50.8252 335.796 50.8252H338.198C339.579 50.8252 340.699 51.8573 340.699 53.1289C340.699 59.4134 335.115 64.5552 328.291 64.5552H327.77C320.935 64.5552 315.351 59.4134 315.351 53.1197Z"/>
<path d="M373.353 48.706C373.353 52.6407 370.431 56.9716 369.18 58.6027C367.098 61.3855 363.966 64.6567 360.624 64.6567C357.391 64.6567 354.259 61.3947 352.178 58.6027C350.927 56.9716 348.005 52.6499 348.005 48.706V21.9556C348.005 20.0758 349.666 18.5462 351.707 18.5462C353.749 18.5462 355.41 20.0758 355.41 21.9556V48.706C355.41 51.1111 358.752 55.7184 360.734 57.3494C362.615 55.7184 365.947 51.1019 365.947 48.6047V21.8543C365.947 19.9745 367.609 18.4448 369.65 18.4448C371.691 18.4448 373.353 19.9745 373.353 21.8543V48.6047V48.706Z"/>
<path fill-rule="evenodd" clip-rule="evenodd" d="M4.3003 62.6016L1.88858 64.8223C0.517609 66.0847 0.517609 68.1488 1.88858 69.402C3.25956 70.6645 5.50115 70.6645 6.86212 69.402L9.27383 67.1813C10.6448 65.9189 10.6448 63.8548 9.27383 62.6016C7.91287 61.3392 5.67128 61.3392 4.3003 62.6016Z"/>
<path fill-rule="evenodd" clip-rule="evenodd" d="M42.0867 46.1441L35.6221 40.2006C30.9587 35.9065 30.9587 28.8849 35.6221 24.6001L49.7221 11.6165C55.0259 6.73268 50.3225 -0.399536 41.8065 0.881313C34.071 2.04237 26.6557 5.3689 20.6914 10.8609L1.66788 28.3781C0.296905 29.6405 0.296905 31.6954 1.66788 32.9578C3.03886 34.2202 5.28046 34.2202 6.64143 32.9578L11.1947 28.7651C12.5657 27.5027 14.8072 27.5027 16.1682 28.7651C17.5392 30.0275 17.5392 32.0916 16.1682 33.3449L3.80941 44.7251C2.43843 45.9875 2.43843 48.0516 3.80941 49.3048C5.18038 50.5672 7.42198 50.5672 8.78295 49.3048L12.2754 46.0888C13.6464 44.8264 15.888 44.8264 17.249 46.0888C18.62 47.3512 18.62 49.4154 17.249 50.6686C14.9173 52.8156 14.6371 53.0828 12.2955 55.2206C10.9245 56.4831 10.9245 58.5472 12.2955 59.8004C13.6664 61.0628 15.908 61.0628 17.269 59.8004L24.1739 53.4422C25.5449 52.1798 27.7865 52.1798 29.1475 53.4422C30.5184 54.7046 30.5184 56.7687 29.1475 58.0219L12.7458 73.1249C11.3748 74.3873 11.3748 76.4422 12.7458 77.7046C14.1168 78.967 16.3584 78.967 17.7193 77.7046L42.0567 55.2944C44.8386 52.7787 44.8386 48.669 42.0867 46.1441Z"/>
<path fill-rule="evenodd" clip-rule="evenodd" d="M72.2578 8.20695C68.9855 5.8019 65.2729 6.45614 62.4409 9.06392L54.0549 16.7859C51.3029 19.3199 51.3029 23.4205 54.0549 25.9545L60.5095 31.8981C65.1728 36.1921 65.1728 43.2138 60.5095 47.4986C51.0227 56.2342 48.9613 58.1324 39.4745 66.868C38.1035 68.1304 38.1035 70.1945 39.4745 71.4477C40.8455 72.7101 43.0871 72.7101 44.4481 71.4477L57.1871 59.7174C58.5581 58.4549 60.7997 58.4549 62.1607 59.7174C63.5316 60.9798 63.5316 63.0439 62.1607 64.2971C60.3794 65.9373 58.5981 67.5775 56.8169 69.2178C55.4459 70.4802 55.4459 72.5443 56.8169 73.7975C58.1878 75.0599 60.4294 75.0599 61.7904 73.7975L75.4301 61.2378C90.5509 47.3143 90.5509 24.7474 75.4301 10.8239C74.4294 9.89325 73.3586 9.01785 72.2578 8.20695Z"/>
<path fill-rule="evenodd" clip-rule="evenodd" d="M31.1587 74.5347L28.747 76.7554C27.376 78.0179 27.376 80.0819 28.747 81.3352C30.1179 82.5976 32.3595 82.5976 33.7205 81.3352L36.1322 79.1144C37.5032 77.852 37.5032 75.7879 36.1322 74.5347C34.7713 73.2723 32.5297 73.2723 31.1587 74.5347Z"/>
</symbol>


</defs>
</svg>
